<svg width="500px" height="500px" viewBox="0 0 500 500" version="1.1" xmlns="http://www.w3.org/2000/svg" xmlns:xlink="http://www.w3.org/1999/xlink">
    <defs>
        <linearGradient x1="133%" y2="135%" x2="2%" y1="-2%" id="driv-1">
            <stop stop-color="#ffe998" offset="0%"></stop>
            <stop stop-color="#57370d" offset="100%"></stop>
        </linearGradient>
        <rect id="driv-2" x="0" y="0" width="500" height="500" rx="40"></rect>
        <mask stroke="none" stroke-width="0" fill="none" fill-rule="evenodd" id="mask">
                <rect fill="white" x="0" y="0" width="500" height="500" rx="40"></rect>
                <rect fill="black" x="350" y="75" width="65" height="350" rx="14"></rect>

                <polyline stroke="black" stroke-width="40" stroke-linecap="square" stroke-linejoin="round" points="97 264 228 264 262 236 337 236"></polyline>
                <polyline stroke="black" stroke-width="40" stroke-linecap="square" stroke-linejoin="round" points="125 390 202 390 270 302 332 302"></polyline>
                <polyline stroke="black" stroke-width="40" stroke-linecap="square" stroke-linejoin="round" points="129 123  206 123 262 170 332 170"></polyline>

                <rect stroke="black" stroke-width="16" fill="white" x="318" y="154" width="64" height="32" rx="12"></rect>
                <rect stroke="black" stroke-width="16" fill="white" x="318" y="220" width="64" height="32" rx="12"></rect>
                <rect stroke="black" stroke-width="16" fill="white" x="318" y="286" width="64" height="32" rx="12"></rect>

                <rect stroke="black" stroke-width="16" fill="white" x="96" y="360" width="58" height="58" rx="29"></rect>
                <rect stroke="black" stroke-width="16" fill="white" x="99" y="95" width="58" height="58" rx="29"></rect>
                <rect stroke="black" stroke-width="16" fill="white" x="55" y="235" width="58" height="58" rx="29"></rect>
        </mask>
    </defs>
    <g stroke="none" stroke-width="0" fill="none" fill-rule="evenodd" mask="url(#mask)">
      <g>
          <use fill="#FC5531" xlink:href="#driv-2"></use>
          <use fill-opacity="0.1" fill="url(#driv-1)" xlink:href="#driv-2"></use>
      </g>
    </g>
</svg>
