<?xml version="1.0" encoding="UTF-8"?>
<svg width="402px" height="94px" viewBox="0 0 201 47" version="1.1" xmlns="http://www.w3.org/2000/svg" xmlns:xlink="http://www.w3.org/1999/xlink">
    <title>Untitled 2</title>
    <g id="Page-1" stroke="none" stroke-width="1" fill="none" fill-rule="evenodd">
        <g id="Group-5" transform="translate(134.126584, 11.000000)">
            <path d="M20.3734164,0 C31.3742652,0 40.351268,8.66511463 40.8514446,19.5423637 C32.187887,19.2352323 23.8712813,18.9132743 15.6084513,18.6441291 L13.0625857,18.5629041 C8.71622222,18.4272852 4.37646185,18.3082396 0.000752337278,18.2156677 C1.13564247,7.96862646 9.82394322,0 20.3734164,0 Z" id="Combined-Shape" fill="#FFA500"></path>
            <path d="M20.1684164,5.33 C28.2029066,5.33 34.7980002,11.4927892 35.484452,19.3491221 C30.9196829,19.183198 26.4375168,19.0169677 21.9921729,18.8608648 L19.434231,18.7721026 C14.600601,18.6065462 9.80055926,18.4554029 4.97624192,18.3321355 C6.11639133,10.9673479 12.4840673,5.33 20.1684164,5.33 Z" id="Combined-Shape" fill="#E59400" opacity="0.3"></path>
            <path d="M20.3734164,10.25 C25.5829078,10.25 29.8846922,14.1363559 30.5376515,19.1679499 C25.4996349,18.9845361 20.544448,18.8049094 15.6084513,18.6441291 L13.0625857,18.5629041 C12.149634,18.5344174 11.2369736,18.5066619 10.3242101,18.4797294 C11.2612032,13.7858588 15.4043878,10.25 20.3734164,10.25 Z" id="Combined-Shape" fill="#CC8400" opacity="0.3"></path>
            <path d="M20.1684164,15.58 C22.3887146,15.58 24.2792454,16.9919019 24.9911497,18.9668466 C21.8005662,18.8529331 18.6351638,18.7425153 15.4773913,18.6398644 C16.2707658,16.837914 18.0726903,15.58 20.1684164,15.58 Z" id="Combined-Shape" fill="#B27300" opacity="0.3"></path>
        </g>
        <path d="M125.178269,34.0824224 C152.700946,30.4534355 168.902845,34.3879077 192.79153,35.4292948 C193.492434,35.4595548 192.176141,36.1599633 191.397713,36.1673438 C173.638144,36.3407853 155.729929,30.7803242 126.405041,35.4292948 C123.048773,35.9614281 122.291535,34.4632556 125.178269,34.0824224 Z" id="Path" fill="#6CE797" fill-rule="nonzero" opacity="0.3"></path>
        <path d="M127.769409,37.8567065 C152.61627,34.5805378 167.421468,38.7774934 188.987642,39.7176346 C189.620402,39.7449527 188.330113,40.4132741 187.627366,40.419937 C171.594422,40.5765162 155.335168,35.5206473 128.861311,39.7176346 C125.831347,40.1980327 125.163329,38.2005143 127.769409,37.8567065 Z" id="Path" fill="#6CE797" fill-rule="nonzero" opacity="0.15"></path>
        <g id="Group" transform="translate(0.000000, 0.708432)" fill="#52BF90" fill-rule="nonzero">
            <path d="M32.0452876,14.9186987 C42.9583555,12.2521446 45.5672379,0.871207657 52.5921895,9.92330496 C59.6171411,18.9754023 28.3728233,36.7747502 42.4145987,32.2312981 C45.536357,31.2210963 56.3884563,29.7049749 62.2997492,29.2825567 C118.659148,25.2573037 151.527212,28.422166 200.445124,29.5772671 C201.880397,29.6108313 199.184965,30.3877207 197.590945,30.3959071 C161.223893,30.5882875 124.303679,25.9015734 64.2538144,31.0581869 C57.3810364,31.6484264 45.1190315,33.8865882 41.159349,34.9663744 C21.000073,40.4651795 47.4773297,21.5333102 45.0011984,14.5372125 C43.1715125,9.36831934 38.878788,17.3205886 31.8047118,17.6873393 C31.0060653,17.72909 31.2864167,15.1041251 32.0452876,14.9186987 Z" id="Path"></path>
            <path d="M15.3948188,22.1096327 C18.8618935,16.1974145 8.27982833,17.983687 8.14726612,20.348738 C7.85513827,25.6199612 9.34769062,36.136211 0.157528674,43.7806716 C-1.11572322,44.8399918 5.70713942,45.9631659 7.06221984,45.4515159 C11.4326815,43.7986817 13.3401045,40.9489957 17.3619766,37.6899898 C23.7274178,32.5301017 31.2196378,26.784886 30.4872725,26.4680723 C29.0847315,25.8622786 4.83075589,43.6578756 5.84051992,43.1920694 C8.26346263,42.0541598 11.4875066,28.7659948 15.3948188,22.1096327 Z" id="Path"></path>
            <path d="M3.63687767,5.81787753 C9.24540496,4.99186974 16.6189736,7.27096358 17.282603,9.58771487 C18.4682983,13.7259402 22.7045612,8.27870946 21.1940066,6.76504405 C17.1402213,2.70131494 6.4362316,-0.637917736 4.38970013,0.10377013 C0.0503333027,1.67965219 1.25975894,6.16825546 3.63687767,5.81787753 Z" id="Path"></path>
        </g>
    </g>
</svg>
