<svg width="500px" height="500px" viewBox="0 0 500 500" version="1.1" xmlns="http://www.w3.org/2000/svg" xmlns:xlink="http://www.w3.org/1999/xlink">
    <defs>
        <linearGradient x1="133%" y2="135%" x2="2%" y1="-2%" id="driv-1">
            <stop stop-color="#ffe998" offset="0%"></stop>
            <stop stop-color="#57370d" offset="100%"></stop>
        </linearGradient>
        <rect id="driv-2" x="0" y="0" width="500" height="500" rx="40"></rect>
        <mask stroke="none" stroke-width="0" fill="none" fill-rule="evenodd" id="mask">
                <rect fill="black" x="0" y="0" width="500" height="500" rx="40"></rect>
                <rect fill="white" x="350" y="75" width="65" height="350" rx="14"></rect>
                <polyline stroke="white" stroke-width="30" stroke-linecap="square" stroke-linejoin="round" points="97 264 228 264 262 236 337 236"></polyline>
                <polyline stroke="white" stroke-width="30" stroke-linecap="square" stroke-linejoin="round" points="125 390 202 390 270 302 332 302"></polyline>
                <polyline stroke="white" stroke-width="30" stroke-linecap="square" stroke-linejoin="round" points="129 123  206 123 262 177 332 177"></polyline>
                <rect stroke="white" stroke-width="10" fill="black" x="318" y="161" width="64" height="32" rx="12"></rect>
                <rect stroke="white" stroke-width="10" fill="black" x="318" y="219" width="64" height="32" rx="12"></rect>
                <rect stroke="white" stroke-width="10" fill="black" x="318" y="286" width="64" height="32" rx="12"></rect>
                <rect stroke="white" stroke-width="12" fill="black" x="106" y="370" width="38" height="38" rx="25"></rect>
                <rect stroke="white" stroke-width="12" fill="black" x="109" y="105" width="38" height="38" rx="25"></rect>
                <rect stroke="white" stroke-width="12" fill="black" x="65" y="245" width="38" height="38" rx="25"></rect>
        </mask>
    </defs>
    <g stroke="none" stroke-width="0" fill="none" fill-rule="evenodd" mask="url(#mask)">
      <g>
          <use fill="#FC5531" xlink:href="#driv-2"></use>
          <use fill-opacity="0.1" fill="url(#driv-1)" xlink:href="#driv-2"></use>
      </g>
    </g>
</svg>
